<svg xmlns="http://www.w3.org/2000/svg" viewBox="0 0 234 70.17"><defs><style>.cls-1{fill:#49ba60;}.cls-2{fill:#fff;}</style></defs><title>Recurso 26Logo</title><g id="Capa_2" data-name="Capa 2"><g id="Capa_1-2" data-name="Capa 1"><circle class="cls-1" cx="35.08" cy="35.08" r="35.08"/><path class="cls-1" d="M93.13,18.72c1.07,0,5.76-.35,11.45,4a.6.6,0,0,1,.13.82L102,27.32a.6.6,0,0,1-.85.13,14.93,14.93,0,0,0-2.37-1.52,13.21,13.21,0,0,0-5.62-1.53c-1.86,0-4.83.61-4.83,3.53,0,2.35,2.07,3.23,8.49,4.81,4.17,1.09,9,3.09,9,9.49,0,5.88-4.89,9.59-11.63,9.59-4.07,0-9.64-1.54-13.18-5.11a.58.58,0,0,1,0-.79l3.08-3.63a.59.59,0,0,1,.85,0,14.05,14.05,0,0,0,9.25,3.86c5.55,0,5.33-3.34,5.33-3.84,0-1.06-.77-2.55-3.51-3.32s-9.61-2.06-12.19-5.06A8.15,8.15,0,0,1,82,28.37C82,24.84,84.29,18.72,93.13,18.72Z"/><path class="cls-1" d="M121.76,26.38A9.93,9.93,0,0,0,114.14,30V27.5a.59.59,0,0,0-.59-.6h-5.08a.6.6,0,0,0-.6.6V58a.59.59,0,0,0,.6.59h5.1a.59.59,0,0,0,.59-.59v-9.5A10,10,0,0,0,122,51.82c4.27,0,11.16-3.43,11.16-12.62S126.71,26.38,121.76,26.38Zm-1.32,20c-3.45,0-6.38-3-6.38-7.3,0-2.62,1.64-7.19,6.32-7.19s6.45,3.77,6.45,7.19S125,46.4,120.44,46.4Z"/><path class="cls-1" d="M147.86,26.38a12.86,12.86,0,0,0-13,12.77,13,13,0,1,0,13-12.77Zm0,20a7,7,0,0,1-6.83-7.27c0-4.54,3.21-7.22,6.83-7.22a7,7,0,0,1,6.72,7.22C154.63,44.06,151.17,46.4,147.91,46.4Z"/><path class="cls-1" d="M176.91,31.77V27.44a.6.6,0,0,0-.6-.6h-5.79V21a.6.6,0,0,0-.6-.6h-5a.59.59,0,0,0-.59.6v5.86h-2.45a.59.59,0,0,0-.59.6v4.33a.59.59,0,0,0,.59.59h2.45V44.62c0,2.75,1.25,7.12,6.74,7.12a13.52,13.52,0,0,0,5.48-1.26.61.61,0,0,0,.35-.54V45.7a.48.48,0,0,0-.75-.4,4.92,4.92,0,0,1-2.89.82c-2.61,0-2.75-1.78-2.75-3V32.36h5.79A.6.6,0,0,0,176.91,31.77Z"/><circle class="cls-1" cx="182.58" cy="20.01" r="3.86"/><rect class="cls-1" x="179.48" y="26.84" width="6.19" height="24.48" rx="0.59"/><path class="cls-1" d="M191.19,32.36h-2.41a.6.6,0,0,1-.6-.59V27.44a.6.6,0,0,1,.6-.6h2.41V25.27c0-1.05.17-7.65,7.57-7.65,3.67,0,4.87.82,4.87.82V22.9c0,.44-.16.81-.63.63a9.89,9.89,0,0,0-3-.55,2.53,2.53,0,0,0-2.67,2.64v1.22h9.07a.6.6,0,0,1,.56.38l6.35,16.42L219,27.28a.59.59,0,0,1,.56-.4h5.57a.38.38,0,0,1,.36.51c-1.31,3.38-8.73,22.56-9.68,25-1.05,2.68-2.83,6.32-7.93,6.32a10.31,10.31,0,0,1-5.67-1.52.6.6,0,0,1-.22-.75l1.82-3.9a.31.31,0,0,1,.43-.13,6.18,6.18,0,0,0,3.09.94c2,0,2.93-2.4,2.93-2.4L202.5,32.36h-5.12V50.77a.59.59,0,0,1-.59.59h-5a.59.59,0,0,1-.6-.59Z"/><path class="cls-1" d="M228.56,28.54h1.85a1.58,1.58,0,0,1,1.18.41,1.26,1.26,0,0,1,.35.93h0a1.25,1.25,0,0,1-.87,1.25l1,1.45h-1l-.87-1.29h-.7v1.29h-.89Zm1.79,2c.44,0,.69-.23.69-.58h0c0-.38-.27-.58-.7-.58h-.89v1.17Z"/><path class="cls-1" d="M230.17,34.49A3.83,3.83,0,1,1,234,30.66,3.84,3.84,0,0,1,230.17,34.49Zm0-7.24a3.41,3.41,0,1,0,3.41,3.41A3.41,3.41,0,0,0,230.17,27.25Z"/><path class="cls-2" d="M49.17,51.77A2.28,2.28,0,0,1,48,51.44C34.17,43.13,17.79,47.94,17.63,48a2.31,2.31,0,0,1-1.35-4.41c.75-.23,18.47-5.48,34.08,3.91a2.3,2.3,0,0,1-1.19,4.28Z"/><path class="cls-2" d="M53.14,42.31A2.63,2.63,0,0,1,51.79,42c-17.36-10-34.85-4.17-35-4.11A2.72,2.72,0,0,1,15,32.69a51.14,51.14,0,0,1,39.5,4.54,2.72,2.72,0,0,1-1.36,5.08Z"/><path class="cls-2" d="M57.45,31.58a3.33,3.33,0,0,1-1.55-.39C35.89,20.68,15.34,27,15.13,27a3.35,3.35,0,1,1-2-6.39c.94-.3,23.44-7.19,45.89,4.61a3.35,3.35,0,0,1-1.56,6.32Z"/></g></g></svg>