<svg xmlns="http://www.w3.org/2000/svg" xmlns:xlink="http://www.w3.org/1999/xlink" viewBox="0 0 233.56 50.4"><defs><style>.cls-1,.cls-3{fill:#fff;}.cls-2,.cls-3{fill-rule:evenodd;}.cls-2{fill:url(#Degradado_sin_nombre_2);}</style><linearGradient id="Degradado_sin_nombre_2" x1="23.68" y1="-479.56" x2="23.68" y2="-433.4" gradientTransform="matrix(1, 0, 0, -1, 0, -432.38)" gradientUnits="userSpaceOnUse"><stop offset="0" stop-color="#fa233b"/><stop offset="1" stop-color="#fb5c74"/></linearGradient></defs><title>Recurso 24Logo</title><g id="Capa_2" data-name="Capa 2"><g id="Capa_1-2" data-name="Capa 1"><path class="cls-1" d="M71.83,38.43H62.92l-2.14,6.33H57l8.45-23.39h3.92l8.44,23.39H74Zm-8-2.91h7.07L67.42,25.26h-.09Z"/><path class="cls-1" d="M96,36.23c0,5.3-2.83,8.7-7.11,8.7a5.78,5.78,0,0,1-5.37-3h-.08V50.4H80V27.7h3.39v2.84h.06a6.06,6.06,0,0,1,5.43-3C93.18,27.53,96,30.94,96,36.23Zm-3.59,0c0-3.45-1.79-5.72-4.51-5.72s-4.47,2.31-4.47,5.72S85.26,42,87.93,42,92.44,39.71,92.44,36.23Z"/><path class="cls-1" d="M114.79,36.23c0,5.3-2.84,8.7-7.12,8.7a5.76,5.76,0,0,1-5.36-3h-.08V50.4h-3.5V27.7h3.38v2.84h.07a6,6,0,0,1,5.43-3C111.94,27.53,114.79,30.94,114.79,36.23Zm-3.6,0c0-3.45-1.78-5.72-4.51-5.72s-4.47,2.31-4.47,5.72S104,42,106.68,42,111.19,39.71,111.19,36.23Z"/><path class="cls-1" d="M117.61,21.37h3.5V44.76h-3.5Z"/><path class="cls-1" d="M139.33,39.75C138.86,42.84,135.85,45,132,45c-5,0-8-3.33-8-8.66s3.09-8.82,7.89-8.82,7.69,3.24,7.69,8.41v1.2h-12v.22c0,2.91,1.83,4.83,4.59,4.83a3.87,3.87,0,0,0,3.94-2.4ZM127.5,34.66H136a4.1,4.1,0,0,0-4.18-4.33A4.32,4.32,0,0,0,127.5,34.66Z"/><path class="cls-1" d="M169.72,44.76V27.54h-.11l-7.05,17h-2.69l-7.07-17h-.11V44.76h-3.31V21.37h4.2l7.57,18.46h.13l7.55-18.46h4.22V44.76Z"/><path class="cls-1" d="M191.69,44.76h-3.35V41.82h-.08A5.35,5.35,0,0,1,183,45c-3.71,0-6-2.4-6-6.31V27.7h3.5V38c0,2.6,1.23,4,3.65,4s4.05-1.75,4.05-4.4V27.7h3.5Z"/><path class="cls-1" d="M201.65,27.51c3.77,0,6.48,2.09,6.56,5.1h-3.29c-.14-1.5-1.42-2.43-3.37-2.43s-3.16.88-3.16,2.21c0,1,.84,1.7,2.61,2.14l2.87.66c3.43.83,4.73,2.09,4.73,4.59,0,3.08-2.92,5.19-7.08,5.19s-6.73-2.06-7-5.18H198c.24,1.64,1.56,2.52,3.68,2.52s3.41-.86,3.41-2.22c0-1.06-.65-1.62-2.44-2.08l-3-.74C196.53,36.52,195,35,195,32.58,195,29.57,197.68,27.51,201.65,27.51Z"/><path class="cls-1" d="M211.33,23.21a2,2,0,1,1,2,2A2,2,0,0,1,211.33,23.21Zm.27,4.49h3.51V44.76H211.6Z"/><path class="cls-1" d="M230.19,33.57a3.77,3.77,0,0,0-4-3.14c-2.69,0-4.48,2.25-4.48,5.8s1.8,5.82,4.51,5.82a3.68,3.68,0,0,0,4-3.07h3.37c-.39,3.59-3.26,6-7.39,6-4.87,0-8-3.33-8-8.74s3.17-8.74,8-8.74c4.38,0,7.1,2.76,7.4,6.08Z"/><path class="cls-1" d="M65.35,14.19H58.12V2.79h7.23V4.4H59.88V7.62h5.18V9.16H59.88v3.42h5.47Z"/><path class="cls-1" d="M71.08,5.42c1.93,0,3.2.9,3.36,2.42H72.82c-.16-.63-.78-1-1.74-1s-1.67.45-1.67,1.12c0,.52.44.84,1.37,1.05l1.43.34c1.63.38,2.4,1.08,2.4,2.34,0,1.62-1.51,2.7-3.56,2.7s-3.38-.92-3.53-2.45h1.69A1.76,1.76,0,0,0,71.09,13c1.06,0,1.81-.48,1.81-1.16,0-.52-.41-.85-1.27-1.05l-1.5-.35C68.5,10,67.74,9.3,67.74,8,67.74,6.49,69.13,5.42,71.08,5.42Z"/><path class="cls-1" d="M82.52,8.4a1.92,1.92,0,0,0-2-1.46C79.07,6.94,78.2,8,78.2,9.86s.87,3,2.29,3a1.87,1.87,0,0,0,2-1.42h1.65a3.36,3.36,0,0,1-3.67,2.93c-2.51,0-4-1.69-4-4.49s1.52-4.44,4-4.44a3.4,3.4,0,0,1,3.68,3Z"/><path class="cls-1" d="M93.59,14.19H92V12.82h-.13a2.58,2.58,0,0,1-2.6,1.53c-1.91,0-3-1.16-3-3.18V5.59H88v5.14c0,1.39.56,2,1.81,2a2,2,0,0,0,2.13-2.16v-5h1.7v8.6Zm-4.69-10,2-2.72h2L90.66,4.15Z"/><path class="cls-1" d="M101.91,8.4a1.92,1.92,0,0,0-2-1.46c-1.42,0-2.29,1.09-2.29,2.92s.88,3,2.29,3a1.87,1.87,0,0,0,2-1.42h1.65a3.36,3.36,0,0,1-3.67,2.93c-2.5,0-4-1.69-4-4.49s1.53-4.44,4-4.44a3.39,3.39,0,0,1,3.68,3Z"/><path class="cls-1" d="M105.81,2.23h1.68V7h.13a2.66,2.66,0,0,1,2.63-1.54c1.83,0,3,1.16,3,3.21v5.55h-1.7V9.05c0-1.37-.64-2.06-1.84-2.06a2,2,0,0,0-2.16,2.17v5h-1.7Z"/><path class="cls-1" d="M115.34,11.75c0-1.54,1.15-2.44,3.19-2.56l2.33-.14V8.31c0-.91-.6-1.42-1.76-1.42-.95,0-1.6.35-1.79,1h-1.64c.17-1.48,1.56-2.43,3.51-2.43,2.16,0,3.37,1.07,3.37,2.89v5.88h-1.63V13h-.13a2.91,2.91,0,0,1-2.59,1.35A2.59,2.59,0,0,1,115.34,11.75Zm5.52-.73V10.3l-2.1.13c-1.18.08-1.72.49-1.72,1.25s.67,1.22,1.6,1.22A2,2,0,0,0,120.86,11Z"/><path class="cls-1" d="M125.28,2.23H127v12h-1.7Z"/><path class="cls-1" d="M129.33,9.88c0-2.77,1.55-4.46,4.06-4.46s4.05,1.69,4.05,4.46-1.54,4.47-4.05,4.47S129.33,12.67,129.33,9.88Zm6.37,0c0-1.86-.84-3-2.31-3s-2.3,1.09-2.3,3,.83,3,2.3,3S135.7,11.75,135.7,9.88Z"/><path class="cls-1" d="M151.65,11.86c-.39,1.55-1.76,2.49-3.73,2.49-2.46,0-4-1.69-4-4.44s1.54-4.49,4-4.49,3.84,1.63,3.84,4.34v.59h-6.07v.09A2.27,2.27,0,0,0,148,12.91a2,2,0,0,0,2-1h1.64Zm-6-2.77H150a2.07,2.07,0,0,0-2.11-2.22A2.19,2.19,0,0,0,145.68,9.09Z"/><path class="cls-1" d="M154,5.59h1.64V7h.12a2.58,2.58,0,0,1,2.57-1.53c1.92,0,3,1.15,3,3.2v5.57h-1.7V9.05c0-1.39-.6-2.07-1.86-2.07a2,2,0,0,0-2.05,2.18v5H154V5.59Z"/><path class="cls-2" d="M47.36,14.81V13.12c0-.48,0-.95,0-1.43a20.2,20.2,0,0,0-.28-3.11,10.39,10.39,0,0,0-1-3,9.94,9.94,0,0,0-4.35-4.35,10.71,10.71,0,0,0-3-1A20.2,20.2,0,0,0,35.67,0L34.24,0H13.12L11.69,0A20.2,20.2,0,0,0,8.58.3a10.71,10.71,0,0,0-3,1A9.94,9.94,0,0,0,1.27,5.62a10.71,10.71,0,0,0-1,3A20.2,20.2,0,0,0,0,11.69c0,.48,0,1,0,1.43V34.24c0,.48,0,1,0,1.43A20.2,20.2,0,0,0,.3,38.78a10.71,10.71,0,0,0,1,3,9.94,9.94,0,0,0,4.35,4.35,10.39,10.39,0,0,0,3,1,20.2,20.2,0,0,0,3.11.28l1.43,0H34.24l1.43,0a20.2,20.2,0,0,0,3.11-.28,10.39,10.39,0,0,0,3-1,9.94,9.94,0,0,0,4.35-4.35,10.39,10.39,0,0,0,1-3,20.2,20.2,0,0,0,.28-3.11c0-.47,0-1,0-1.43V14.81Z"/><g id="Glyph"><path class="cls-3" d="M33.48,7.24l-1.25.21L18.15,10.29h0a1.94,1.94,0,0,0-.88.4,1.37,1.37,0,0,0-.47.91,2.19,2.19,0,0,0,0,.48V29.69a1.71,1.71,0,0,1-.31,1.16,1.58,1.58,0,0,1-1,.52l-.91.19a15.22,15.22,0,0,0-2.61.66,4.17,4.17,0,0,0-1.54,1,3.75,3.75,0,0,0,.19,5.29,3.59,3.59,0,0,0,1.71.88,6.32,6.32,0,0,0,2.54-.13,5.08,5.08,0,0,0,1.64-.61,4,4,0,0,0,1.3-1.19,4.51,4.51,0,0,0,.69-1.63,7.89,7.89,0,0,0,.16-1.74V18.79c0-.82.23-1,.89-1.2,0,0,11.7-2.36,12.25-2.46.76-.15,1.12.07,1.12.86V26.43a1.73,1.73,0,0,1-.29,1.17,1.58,1.58,0,0,1-1,.52l-.92.19A15.07,15.07,0,0,0,28,29a4,4,0,0,0-1.54,1,3.67,3.67,0,0,0,.19,5.28,3.41,3.41,0,0,0,1.71.87A6.32,6.32,0,0,0,30.91,36a5.12,5.12,0,0,0,1.64-.59,4.15,4.15,0,0,0,1.3-1.2,4.44,4.44,0,0,0,.69-1.63,7.85,7.85,0,0,0,.13-1.74V8.48C34.67,7.67,34.24,7.17,33.48,7.24Z"/></g></g></g></svg>