<svg xmlns="http://www.w3.org/2000/svg" viewBox="0 0 233.56 45.11"><defs><style>.cls-1{fill:#fff;}</style></defs><title>Recurso 23Logo</title><g id="Capa_2" data-name="Capa 2"><g id="Capa_1-2" data-name="Capa 1"><path class="cls-1" d="M210.94.1a3,3,0,0,1,2.36.4,2.64,2.64,0,0,1,.12,3.93,3.22,3.22,0,0,1-2.55.47,2.12,2.12,0,0,1-1.76-2.12,2.72,2.72,0,0,1,.23-1.49A2.36,2.36,0,0,1,210.94.1M4.68,8.86a13.38,13.38,0,0,1,3.18-.81,11.34,11.34,0,0,1,3.77.23,7.92,7.92,0,0,1,3.51,1.78,5.81,5.81,0,0,1,1.53,4.16c0,2.83,0,5.67,0,8.5a5.4,5.4,0,0,0,1.25,3c.33.31.59.84.24,1.23-.79.7-1.61,1.35-2.39,2.06-.39.34-.8.82-1.38.73A9.49,9.49,0,0,1,12,27.19,8.12,8.12,0,0,1,8.18,29.6a11.68,11.68,0,0,1-3,.19A5,5,0,0,1,.68,27.06,6.62,6.62,0,0,1,0,24.92a8.74,8.74,0,0,1,.15-2.84A6.45,6.45,0,0,1,3.91,17.7a15.9,15.9,0,0,1,3.94-1c1.08-.1,2.16-.27,3.24-.28.49-.89.11-1.91-.09-2.83-.68-1.65-3.06-1.9-4.35-.83a2.77,2.77,0,0,0-1,1.43,2.62,2.62,0,0,1-.43.91,6.51,6.51,0,0,1-2-.15A14.88,14.88,0,0,1,.79,14.6a2.68,2.68,0,0,1,.23-2A6.49,6.49,0,0,1,4.68,8.86M8.87,19.65A3.76,3.76,0,0,0,6,21.53a4.05,4.05,0,0,0-.32,2.2,2.34,2.34,0,0,0,1.73,2.2,3,3,0,0,0,2.67-1,6,6,0,0,0,1.16-3.29c.25-.72-.09-1.44-.05-2.17a11.83,11.83,0,0,0-2.3.18M55.75,8.47A15.82,15.82,0,0,1,58.56,8a9.71,9.71,0,0,1,2.95.22c1.84.45,3.79,1.39,4.6,3.2a8.72,8.72,0,0,1,.56,3.83c0,2.13,0,4.26,0,6.39A5.74,5.74,0,0,0,68,25.77a.89.89,0,0,1,.26,1.07c-.51.56-1.15,1-1.7,1.49s-1,1-1.54,1.31a.9.9,0,0,1-1.08-.25,10.27,10.27,0,0,1-1.86-2.24,7.25,7.25,0,0,1-5.46,2.64,7.64,7.64,0,0,1-3.61-.5,5.07,5.07,0,0,1-2.86-4.35,9.33,9.33,0,0,1,.27-3.49,6.55,6.55,0,0,1,2.33-3.06,12.3,12.3,0,0,1,5.35-1.74,28.49,28.49,0,0,1,3-.25,3.88,3.88,0,0,0,.14-1.73,3,3,0,0,0-.72-1.85,3.06,3.06,0,0,0-4.5.58c-.43.49-.31,1.24-.83,1.67A7.82,7.82,0,0,1,53.79,15c-1-.22-1.95-.16-2.91-.39a1.82,1.82,0,0,1-.08-1.34,6.42,6.42,0,0,1,3-4,10.77,10.77,0,0,1,1.94-.85m1.73,11.66a3.09,3.09,0,0,0-1.77,2.65,3.44,3.44,0,0,0,.3,2A2.1,2.1,0,0,0,57.66,26a3.13,3.13,0,0,0,3.14-2.17,9.34,9.34,0,0,0,.48-4.3,7.85,7.85,0,0,0-3.8.65M142.64,8.31a7.58,7.58,0,0,1,4.25,0,4.91,4.91,0,0,1,3.1,2.57,13.36,13.36,0,0,1,5.91-2.61,7.86,7.86,0,0,1,4.38,0,4.91,4.91,0,0,1,3.16,2.79,7,7,0,0,1,.61,3.25V27.61a3.22,3.22,0,0,1-.26,1.87,18.39,18.39,0,0,1-3.06.1.75.75,0,0,1-.84-.77q0-7.06,0-14.13a4.21,4.21,0,0,0-.74-2.28,2.94,2.94,0,0,0-2.72-.94,11.42,11.42,0,0,0-5.72,1.7c-.07,5.3,0,10.59,0,15.88-.15.26-.35.54-.68.53-.92,0-1.83,0-2.75,0a.68.68,0,0,1-.71-.64c0-4.76,0-9.51,0-14.27a3.8,3.8,0,0,0-1.32-2.77,3.88,3.88,0,0,0-2.6-.43,10.7,10.7,0,0,0-5.27,1.69c0,5.06,0,10.13,0,15.2,0,.38,0,.86-.32,1.11a3.86,3.86,0,0,1-1.4.12,8.15,8.15,0,0,1-2.26-.15,3.45,3.45,0,0,1-.16-1.53V11a11.57,11.57,0,0,1,.07-2c.66-.43,1.47-.19,2.21-.26a1.27,1.27,0,0,1,1.27.46c.16.51.18,1.05.3,1.57a14.38,14.38,0,0,1,5.61-2.38M192.81,10a8.54,8.54,0,0,1,6-2,9.49,9.49,0,0,1,1.92.13,15.61,15.61,0,0,1,3.63,1c.68.37.48,1.2.51,1.83,0,.37.13,1-.37,1.07-.72.15-1.39-.29-2.08-.41a11.55,11.55,0,0,0-5.54-.14,2.37,2.37,0,0,0-1.91,2.3,2.11,2.11,0,0,0,1,2,16.55,16.55,0,0,0,3.79,1.69,15.33,15.33,0,0,1,3.88,1.78A5.08,5.08,0,0,1,205.78,22a6.81,6.81,0,0,1-.09,4,5.85,5.85,0,0,1-2.21,2.72,9.07,9.07,0,0,1-3.95,1.43,17.49,17.49,0,0,1-7-.79,3.94,3.94,0,0,1-1.56-.77A8.58,8.58,0,0,1,191,26a4.53,4.53,0,0,1,2.31.41,19.46,19.46,0,0,0,3.47.56c1.28,0,2.65.21,3.82-.43a2.6,2.6,0,0,0,1.13-4,6.28,6.28,0,0,0-2.11-1.25c-1.42-.51-2.84-1-4.25-1.58a6.58,6.58,0,0,1-3.75-3.33A5.82,5.82,0,0,1,192.81,10M27.93,9.2a5.33,5.33,0,0,1,4.45-.84c1.81.25,3,1.85,3.72,3.42A5.68,5.68,0,0,1,41.45,8.2a5.86,5.86,0,0,1,4.21,2,5.6,5.6,0,0,1,1.1,3.61,9.39,9.39,0,0,1,0,2.54c0,4.17,0,8.33,0,12.5a.88.88,0,0,1-.2.62,3.5,3.5,0,0,1-1.51.16c-1.08,0-2.16.06-3.23-.07-.13-.22-.33-.43-.29-.71,0-4.22,0-8.44,0-12.66-.08-.54-.15-1.09-.23-1.63a2.13,2.13,0,0,0-1.77-1.41,2.8,2.8,0,0,0-2.61,1.63c-.19.76-.26,1.55-.4,2.32,0,3.92,0,7.84,0,11.75a2.22,2.22,0,0,1-.17.66,6.78,6.78,0,0,1-1.85.11c-.85,0-1.69,0-2.53,0a.64.64,0,0,1-.65-.63c0-4.26,0-8.53,0-12.8a4.39,4.39,0,0,0-.85-2.49,2.34,2.34,0,0,0-3.05,0,3.51,3.51,0,0,0-.86,1.61,17.74,17.74,0,0,0-.16,3.09v10.4a1,1,0,0,1-.47.76c-.8.08-1.62,0-2.43,0a8.59,8.59,0,0,1-2.27-.13A3.86,3.86,0,0,1,21,27.76q0-9.15,0-18.3a.69.69,0,0,1,.68-.81h3.69a.61.61,0,0,1,.64.52c0,.82,0,1.64,0,2.46A6.54,6.54,0,0,1,27.93,9.2m67.85-1a11.61,11.61,0,0,1,2.49.24,7.92,7.92,0,0,1,5.21,4.27,15.29,15.29,0,0,1,1.3,8.72,11.74,11.74,0,0,1-2.27,5.5,8.88,8.88,0,0,1-2.11,1.9,8.28,8.28,0,0,1-8.07.24A8.19,8.19,0,0,1,89,25.56a14.1,14.1,0,0,1-1.19-3.47,24.3,24.3,0,0,1-.06-5.59,12.76,12.76,0,0,1,.42-1.83,9,9,0,0,1,4-5.48,8.27,8.27,0,0,1,3.59-1m-.22,4.13a2.23,2.23,0,0,0-1.22.77,6.2,6.2,0,0,0-1,2.9,23.81,23.81,0,0,0,.37,7.44,3.57,3.57,0,0,0,1.49,2.21,2.35,2.35,0,0,0,3.15-1,9.4,9.4,0,0,0,.83-4.75,19.91,19.91,0,0,0-.4-5.29,3.74,3.74,0,0,0-.44-1.24,2.43,2.43,0,0,0-2.73-1m18.69-2.8a4.4,4.4,0,0,1,3.2-1.36,14.94,14.94,0,0,1,1.77,0,4.93,4.93,0,0,1,3.43,2.56,11.4,11.4,0,0,1,.8,4.48c0,4.52,0,9,0,13.55a1.59,1.59,0,0,1-.24.69,14.54,14.54,0,0,1-2.47.08,12.94,12.94,0,0,1-2.33-.08,2.25,2.25,0,0,1-.28-1.59c0-3.62,0-7.24,0-10.85a6.85,6.85,0,0,0-.43-2.81,2,2,0,0,0-2-1.16,2.59,2.59,0,0,0-2.15,1.83,9.08,9.08,0,0,0-.5,2.58V28.67a1.49,1.49,0,0,1-.22.82c-1.59,0-3.19,0-4.78,0a1.08,1.08,0,0,1-.33-.82c0-6.58,0-13.16,0-19.73.22-.16.39-.46.7-.43h3.54a.86.86,0,0,1,.81.59c.07.87,0,1.76.07,2.63a10,10,0,0,1,1.43-2.18M219.2,13a9.18,9.18,0,0,1,7-4.8,14.13,14.13,0,0,1,6.64.84c.2.14.46.28.47.56a8.56,8.56,0,0,1,0,2.37,2.25,2.25,0,0,1-1.36,0,10,10,0,0,0-6.27.09,4.74,4.74,0,0,0-2.86,3,12.26,12.26,0,0,0-.51,2.55,17.39,17.39,0,0,0,.3,4.83,5.38,5.38,0,0,0,1.14,2.23,5.76,5.76,0,0,0,3.34,1.79,11.67,11.67,0,0,0,3.44-.07c.91-.06,1.75-.55,2.67-.52.49.2.37.81.39,1.23,0,.6.15,1.36-.45,1.74a11.62,11.62,0,0,1-3.49,1c-1.05.05-2.1,0-3.15,0a12.38,12.38,0,0,1-3.39-.89,8,8,0,0,1-3.8-3.61,12.77,12.77,0,0,1-1.2-3.77,25.82,25.82,0,0,1,0-5.05A12.53,12.53,0,0,1,219.2,13m-50-3.57a.68.68,0,0,1,.66-.79h2.67a.8.8,0,0,1,.82.82q0,6.39,0,12.78a5.58,5.58,0,0,0,.38,2.78,3,3,0,0,0,2.67,1.89,10.86,10.86,0,0,0,6.47-2c0-5.2,0-10.4,0-15.6a.71.71,0,0,1,.79-.69c.93,0,1.85,0,2.78,0,.27.11.61.29.54.64q0,9.75,0,19.51a.65.65,0,0,1-.57.75c-.62,0-1.24,0-1.85,0-.36,0-.81,0-1-.38a8,8,0,0,1-.43-1.76,18.57,18.57,0,0,1-3.2,1.79,12.88,12.88,0,0,1-5.21,1,5.56,5.56,0,0,1-4.29-2,6.13,6.13,0,0,1-1.27-3.72c0-5,0-10,0-15M210,8.73a24.83,24.83,0,0,1,3-.08.61.61,0,0,1,.68.66c0,6.5,0,13,0,19.5a.67.67,0,0,1-.59.77c-.91,0-1.83,0-2.74,0a.7.7,0,0,1-.73-.77c0-6.49,0-13,0-19.48-.05-.27.19-.45.37-.6M71.28,9.32c0-.28.2-.47.33-.69H84.75c.3,0,.47.27.63.48.06.8,0,1.62,0,2.43a4.77,4.77,0,0,1-1.15,2.2L79.14,21A13.33,13.33,0,0,0,78,22.63a14.83,14.83,0,0,1,7,1.58,1.34,1.34,0,0,1,.72,1.31c0,.95,0,1.9,0,2.84,0,.29-.22.47-.38.67-.48.13-.88-.21-1.3-.37A14.23,14.23,0,0,0,71.56,29a.69.69,0,0,1-1-.67c0-1,0-2.05,0-3.08a2.87,2.87,0,0,1,.51-1.77c1.85-2.66,3.72-5.3,5.58-8,.59-.89,1.28-1.72,1.81-2.66-2.17,0-4.34,0-6.51,0-.41.05-.55-.39-.67-.69,0-.94,0-1.88,0-2.82m-.35,23.07a13.82,13.82,0,0,1,9.31-1.86,6.28,6.28,0,0,1,2,.51.82.82,0,0,1,.53.61,11.27,11.27,0,0,1-.65,5,12.86,12.86,0,0,1-3.48,5.57.88.88,0,0,1-1.17,0,50.82,50.82,0,0,0,2.13-6.42,3.38,3.38,0,0,0-.07-2.09c-.42-.55-1.16-.56-1.78-.67a24.59,24.59,0,0,0-4.29.12,20.25,20.25,0,0,1-2.91.13.88.88,0,0,1,.39-.93m-53.08-.68A2.7,2.7,0,0,1,19,32.2a65.21,65.21,0,0,0,18.52,6.87c.67.07,1.31.28,2,.39,1.5.16,3,.54,4.47.58.9.19,1.83.07,2.72.28,1.42.09,2.84.06,4.26.07,1.15,0,2.31,0,3.46-.08.91-.2,1.86-.08,2.77-.27,1.51,0,3-.43,4.48-.58,1.63-.37,3.27-.63,4.87-1.09a63.11,63.11,0,0,0,8.77-2.93,1.33,1.33,0,0,1,1.48.1,1,1,0,0,1-.27,1.57A41.09,41.09,0,0,1,64.5,43a47.1,47.1,0,0,1-7.44,1.67A47.27,47.27,0,0,1,48,45.1a38.6,38.6,0,0,1-4.68-.33c-1-.24-2-.24-2.93-.51A47.84,47.84,0,0,1,17.53,32.79c-.38-.32-.26-1.11.32-1.08Z"/></g></g></svg>