<svg xmlns="http://www.w3.org/2000/svg" viewBox="0 0 221.1 67"><defs><style>.cls-1,.cls-2{fill:red;}.cls-2{stroke:#fff;stroke-miterlimit:18.18;stroke-width:3.35px;}.cls-3{fill:#fff;}</style></defs><title>Recurso 25Logo</title><g id="Capa_2" data-name="Capa 2"><g id="Capa_1-2" data-name="Capa 1"><ellipse class="cls-1" cx="34.06" cy="33.5" rx="34.06" ry="33.5"/><ellipse class="cls-2" cx="34.06" cy="33.5" rx="20.38" ry="20.1"/><path class="cls-3" d="M27.08,43.27,45,33.5,27.08,23.73Z"/><path d="M104.41,26.8c-1.67,8.1-2.79,17.59-3.35,21.78h-.56c-.56-4.19-1.67-13.68-3.35-21.5L93,7.54H80.4V60.3h7.82V16.75l.84,4.19L97.15,60.3H105l7.82-39.36.55-4.19V60h7.82V7.54H108.32c.28,0-3.91,19.26-3.91,19.26Z"/><path d="M142.38,52.21a4.75,4.75,0,0,1-3.91,2.51c-1.68,0-2.51-1.4-2.51-4.75V21.78H127V50.25c0,7,2.52,10.33,7.82,10.33,3.63,0,6.42-1.67,8.65-5.3h.28l.84,4.74h7V21.78h-9.21Z"/><path d="M168.62,36.85c-2.79-2-4.75-3.35-4.75-6.42q0-3.34,3.35-3.35c2.52,0,3.35,1.67,3.35,7.54l7.54-.28c.56-9.21-2.51-13.12-10.89-13.12-7.53,0-11.44,3.35-11.44,10.05,0,6.14,3.07,8.93,8.09,12.84,4.47,3.35,7,5,7,7.82a3.3,3.3,0,0,1-3.63,3.35c-2.79,0-4.18-2.52-3.9-6.7h-7.54c-1.12,8.09,2.23,12.56,10.89,12.56,7.81,0,11.72-3.35,11.72-10.33.56-6.42-2.79-8.93-9.77-14Z"/><path d="M183.7,21.78h8.65V60H183.7Z"/><path d="M188.16,6.42c-3.35,0-4.74,1.12-4.74,5.31s1.67,5.3,4.74,5.3c3.35,0,4.75-1.12,4.75-5.3C192.91,7.82,191.51,6.42,188.16,6.42Z"/><path d="M221.1,46.34l-7.81-.28c0,6.7-.84,8.94-3.35,8.94s-3.07-2.52-3.07-10.33V37.13c0-7.82.55-10.05,3.07-10.05S213,29.31,213,36.57l7.81-.56c.56-5.86-.27-10-2.51-12.28-1.67-1.68-4.46-2.51-8.09-2.51-8.66,0-12.29,4.46-12.29,17.31v5.3c0,13.12,3.07,17.31,12,17.31,3.63,0,6.42-.84,8.09-2.51C220.27,56.11,221.1,52.21,221.1,46.34Z"/></g></g></svg>