<svg xmlns="http://www.w3.org/2000/svg" viewBox="0 0 100 100"><defs><style>.cls-1{fill:#fff;}</style></defs><title>Recurso 8Logo</title><g id="Capa_2" data-name="Capa 2"><g id="Capa_1-2" data-name="Capa 1"><path class="cls-1" d="M77.5,0h-55A22.5,22.5,0,0,0,0,22.5v55A22.5,22.5,0,0,0,22.5,100h55A22.5,22.5,0,0,0,100,77.5v-55A22.5,22.5,0,0,0,77.5,0ZM83,40.63a7.84,7.84,0,0,1,5.18-.3,8.39,8.39,0,0,1,1.85.84v3.07a5.33,5.33,0,0,0-5.47-.72,5.42,5.42,0,0,0-2.65,4.94c0,2.26.72,4.35,2.29,5.33,1.4,1,3.6,1,5.83.61V57a13,13,0,0,1-2.75.53,8.83,8.83,0,0,1-4.87-1A7.74,7.74,0,0,1,79,52.88a11.58,11.58,0,0,1-.87-4.38A8.37,8.37,0,0,1,83,40.63ZM72.5,32.53A2.5,2.5,0,1,1,70,35,2.5,2.5,0,0,1,72.5,32.53ZM74.38,40v17.5H70.63V40ZM55,52.94a19.89,19.89,0,0,0,5.08,1.47,7.69,7.69,0,0,0,4.17-.56,1.17,1.17,0,0,0,.58-1.14,1.66,1.66,0,0,0-.31-1c-.4-.62-1.49-1.08-3.22-1.5a12.51,12.51,0,0,1-2.8-1,4.76,4.76,0,0,1-2.7-5c.22-1.52,1.79-3,4-3.71a10.67,10.67,0,0,1,7.7.7v3.1a8.91,8.91,0,0,0-6.65-.9c-.62.19-1.45.63-1.45,1.41,0,1.87,2.18,2.23,3,2.5a15.85,15.85,0,0,1,2.78,1,4.85,4.85,0,0,1,3,4.46c0,2.64-1.3,3.62-2.38,4.05a10.6,10.6,0,0,1-6.12.53A12.94,12.94,0,0,1,55,55.62ZM38.13,40h3.75v6c0,2,0,4.13,0,6-.09,1,1,2.12,2.44,2.29A3.84,3.84,0,0,0,46.55,54c.52-.2,1.05-.38,1.58-.56V40h3.75v17H48.13v-.59c-.11.06-.2.12-.31.17a7,7,0,0,1-3.78.86A6.79,6.79,0,0,1,40.21,56a5.51,5.51,0,0,1-2.05-3.82c-.07-2.2,0-4.09,0-6.14Zm-27.5,0h3.75v1.71c.92-.33,1.84-.68,2.77-1a5.44,5.44,0,0,1,4.33.36,5.22,5.22,0,0,1,1.44,1.17c1.41-.52,2.81-1,4.22-1.53a5.5,5.5,0,0,1,4.34.35,5.58,5.58,0,0,1,2.89,4.7v.79l0,1.57,0,3.12v6.25H30.63l0-12.11a2,2,0,0,0-2.55-1.65c-1.27.34-2.56.64-3.84,1a6.38,6.38,0,0,1,.15,1.08v.79l0,1.56,0,3.13v6.25H20.62V45.41a2,2,0,0,0-2.55-1.65c-1.22.32-2.46.61-3.69.91V57.52H10.62Zm73.79,32.3a55,55,0,0,1-18.21,8.19,63,63,0,0,1-20,1.82,66.13,66.13,0,0,1-19.46-4.48A66.37,66.37,0,0,1,9.63,68a.62.62,0,0,1,.69-1l0,0A96.59,96.59,0,0,0,28,74.24a80,80,0,0,0,18.5,3.22,78.3,78.3,0,0,0,18.62-1.55,83.82,83.82,0,0,0,17.92-5.69l.1,0a1.25,1.25,0,0,1,1.25,2.16Zm2.78,7.4c-.69.52-1.38.35-1-.53,1-2.79,3.3-8.75,2.26-10.15-1.22-1.57-7.47-.7-10.24-.35-.87,0-.87-.7-.18-1.22A15,15,0,0,1,86.51,65c2.78,0,5.21.52,5.73,1.4C93.11,67.47,91.89,75.7,87.2,79.73Z"/></g></g></svg>