<svg xmlns="http://www.w3.org/2000/svg" viewBox="0 0 100 100"><defs><style>.cls-1{fill:#fff;}</style></defs><title>Recurso 7Logo</title><g id="Capa_2" data-name="Capa 2"><g id="Capa_1-2" data-name="Capa 1"><path class="cls-1" d="M78.57,0H21.43A21.45,21.45,0,0,0,0,21.43V78.57A21.45,21.45,0,0,0,21.43,100H78.57A21.45,21.45,0,0,0,100,78.57V21.43A21.45,21.45,0,0,0,78.57,0ZM73.81,54.76v9.58h0A11.91,11.91,0,0,1,61.9,76.19H60.71A8.33,8.33,0,0,1,52.42,67a8.61,8.61,0,0,1,8.63-7.49h3.24a4.76,4.76,0,0,0,4.76-4.76V31.44L40.48,36.8V71.43a11.92,11.92,0,0,1-11.91,11.9H27.38a8.33,8.33,0,0,1-8.29-9.18,8.59,8.59,0,0,1,8.63-7.48H31a4.77,4.77,0,0,0,4.76-4.77V27a4.77,4.77,0,0,1,3.89-4.68l30-5.62a3.57,3.57,0,0,1,4.23,3.51Z"/></g></g></svg>