<svg xmlns="http://www.w3.org/2000/svg" viewBox="0 0 100 100"><defs><style>.cls-1{fill:#fff;}</style></defs><title>Recurso 6Logo</title><g id="Capa_2" data-name="Capa 2"><g id="Capa_1-2" data-name="Capa 1"><path class="cls-1" d="M91.49,0h-83A8.63,8.63,0,0,0,0,8.74V91.26A8.63,8.63,0,0,0,8.51,100h44.3V64.2H40.73V49.83H52.81V36.45A18.69,18.69,0,0,1,71.25,17.52H83V31.29H74.64a7.81,7.81,0,0,0-7.7,7.91V49.83H80.79L79.14,64.2H66.94V100H91.49A8.63,8.63,0,0,0,100,91.26V8.74A8.63,8.63,0,0,0,91.49,0Z"/></g></g></svg>