<svg xmlns="http://www.w3.org/2000/svg" viewBox="0 0 100 100"><defs><style>.cls-1{fill:#fff;}</style></defs><title>Recurso 9Logo</title><g id="Capa_2" data-name="Capa 2"><g id="Capa_1-2" data-name="Capa 1"><path class="cls-1" d="M29.55,0A29.58,29.58,0,0,0,0,29.55v40.9A29.58,29.58,0,0,0,29.55,100h40.9A29.58,29.58,0,0,0,100,70.45V29.55A29.58,29.58,0,0,0,70.45,0ZM77.27,18.18a4.55,4.55,0,1,1-4.54,4.55A4.57,4.57,0,0,1,77.27,18.18ZM50,25A25,25,0,1,1,25,50,25,25,0,0,1,50,25Zm0,9A16,16,0,1,0,66,50,16,16,0,0,0,50,34Z"/></g></g></svg>