<svg xmlns="http://www.w3.org/2000/svg" viewBox="0 0 500 416.43"><defs><style>.cls-1{fill:#fff;}</style></defs><title>Recurso 1Sidekick</title><g id="Capa_2" data-name="Capa 2"><g id="Capa_1-2" data-name="Capa 1"><path class="cls-1" d="M427.76,309.86l67.81-102.13v-45h-64V128.67h61.72v-47H431.59V49.82h64V3.88L382.36,5V71.59a93.23,93.23,0,0,0-14.22-29.52C341.56,3.88,300.6,3.88,277.63,3.88L209.81,5V209.77l9.43-.14a102.59,102.59,0,0,0-23.14,11.18V5H143.79V136.29c-3.94-16.85-16.35-30.67-46.36-44.16C60.62,75.52,55.08,72,55.08,59.78c0-9.68,8.86-16.05,18-16.05,16,0,17.71,13,18.82,19.93h51.75C143.1,52,142.27,38.2,130.09,23.25,116.8,7.47,94.94,0,74.73,0,40.41,0,3,21.86,3,60.33S38.75,113.21,53.14,119c31.56,13.29,40.14,16.61,40.14,30.17a19.76,19.76,0,0,1-19.93,19.65c-6.64,0-21.31-4.15-21.31-28H0v6.65c0,20.66,9.06,49,41.66,60.2H0V412.55H52.31V324h.55l55.92,88.57H196.1V399c16.65,10.91,37,17.44,59.88,17.44,28.66,0,54.81-10.74,74.08-29.17v25.29h52.3V324h.56l55.91,88.57H500Zm-375.45-10V210.58a109.9,109.9,0,0,0,21.59,2c45.23,0,64.67-22.14,69.89-46.82v42H110.72L52.86,299.9Zm45.39,10,46.09-69.41V375.38Zm164.42-259,22.71-1.07c23.24,0,33.76,9.69,39.84,18.82,7.49,11.63,10,27.37,10,39,0,29.07-11.08,55.13-50.11,55.13l-22.42,1.06Zm42.58,285c-3.33,7.2-16.62,34.61-49.27,34.61-34.05,0-55.08-29.9-55.08-60.9,0-29.06,19.65-59.79,54.8-59.79,28.24,0,43.73,20.49,49.55,35.71h25.36v50.37Zm25.36-128.15v25.48a103.41,103.41,0,0,0-41.87-24.63c55.61-2,83.93-28.74,94.17-65.5v64.65Zm52.3,92.17V208.8l58.08-.55L382.92,299.9Z"/></g></g></svg>