<svg xmlns="http://www.w3.org/2000/svg" viewBox="0 0 100 100"><defs><style>.cls-1{fill:#fff;}</style></defs><title>Recurso 10Logo</title><g id="Capa_2" data-name="Capa 2"><g id="Capa_1-2" data-name="Capa 1"><path class="cls-1" d="M50,0a50,50,0,1,0,50,50A50,50,0,0,0,50,0ZM72.93,72.11a3.12,3.12,0,0,1-4.29,1C56.9,66,42.12,64.35,24.72,68.33a3.12,3.12,0,0,1-1.39-6.08c19.05-4.35,35.39-2.48,48.57,5.58a3.11,3.11,0,0,1,1,4.28ZM79.05,58.5a3.9,3.9,0,0,1-5.36,1.28C60.25,51.52,39.76,49.13,23.86,54A3.9,3.9,0,1,1,21.6,46.5C39.76,41,62.33,43.66,77.77,53.14a3.9,3.9,0,0,1,1.28,5.36Zm.53-14.18c-16.12-9.57-42.71-10.45-58.09-5.78a4.68,4.68,0,0,1-2.72-8.95c17.66-5.36,47-4.32,65.58,6.69a4.67,4.67,0,0,1-4.77,8Z"/></g></g></svg>