<svg xmlns="http://www.w3.org/2000/svg" viewBox="0 0 100 70.31"><defs><style>.cls-1{fill:#fff;fill-rule:evenodd;}</style></defs><title>Recurso 11Logo</title><g id="Capa_2" data-name="Capa 2"><g id="Capa_1-2" data-name="Capa 1"><path class="cls-1" d="M98.93,15.17s-1-6.92-4-9.92c-3.8-4-8.09-4-10-4.23C71,0,50,0,50,0h0S28.94,0,15,1c-1.93.21-6.22.27-10,4.23-3,3-4,9.92-4,9.92A148.24,148.24,0,0,0,0,31.35v7.56A148.24,148.24,0,0,0,1,55.09S2,62,5,65c3.81,4,8.79,3.85,11,4.28,8,.75,34,1,34,1s21,0,35-1c1.93-.21,6.22-.27,10-4.23,3-3,4-9.92,4-9.92A148.24,148.24,0,0,0,100,39V31.4a148.24,148.24,0,0,0-1-16.18ZM39.6,48.12V20l27,14.1Z"/></g></g></svg>