<svg xmlns="http://www.w3.org/2000/svg" viewBox="0 0 100 100"><defs><style>.cls-1{fill:#fff;}</style></defs><title>Recurso 5Sidekick</title><g id="Capa_2" data-name="Capa 2"><g id="Capa_1-2" data-name="Capa 1"><path class="cls-1" d="M58.06,99.35l-1.25.19,1.25-.19Z"/><path class="cls-1" d="M59.06,99.18l-.6.1.6-.1Z"/><path class="cls-1" d="M55.69,99.68l-1.47.14,1.47-.14Z"/><path class="cls-1" d="M56.65,99.56l-.7.09.7-.09Z"/><path class="cls-1" d="M60.42,98.91,59.9,99l.52-.11Z"/><path class="cls-1" d="M63.8,98.07l-.42.12.42-.12Z"/><path class="cls-1" d="M62.78,98.35l-.46.12.46-.12Z"/><path class="cls-1" d="M61.44,98.68l-.49.11.49-.11Z"/><path class="cls-1" d="M54.2,99.82l-.79.06.79-.06Z"/><path class="cls-1" d="M100,50a50,50,0,1,0-50,50h.88V61.07H40.14V48.55H50.88V39.33c0-10.68,6.52-16.5,16.05-16.5a88,88,0,0,1,9.63.5V34.49H70c-5.18,0-6.19,2.47-6.19,6.08v8H76.2L74.58,61.07H63.8v37A50,50,0,0,0,100,50Z"/><path class="cls-1" d="M53.3,99.89l-1.56.08,1.56-.08Z"/><path class="cls-1" d="M51.71,100l-.83,0,.83,0Z"/></g></g></svg>