<svg xmlns="http://www.w3.org/2000/svg" viewBox="0 0 100 100"><defs><style>.cls-1{fill:#fff;}</style></defs><title>Recurso 4Sidekick</title><g id="Capa_2" data-name="Capa 2"><g id="Capa_1-2" data-name="Capa 1"><path class="cls-1" d="M59.57,50A9.57,9.57,0,1,1,50,40.43,9.56,9.56,0,0,1,59.57,50Z"/><path class="cls-1" d="M72.38,33.07a9.54,9.54,0,0,0-5.45-5.45,16,16,0,0,0-5.33-1c-3-.14-3.93-.17-11.6-.17s-8.57,0-11.6.17a16,16,0,0,0-5.33,1,9.54,9.54,0,0,0-5.45,5.45,15.74,15.74,0,0,0-1,5.33c-.14,3-.17,3.93-.17,11.6s0,8.57.17,11.6a15.74,15.74,0,0,0,1,5.33,9.54,9.54,0,0,0,5.45,5.45,15.74,15.74,0,0,0,5.33,1c3,.14,3.93.17,11.6.17s8.57,0,11.6-.17a15.74,15.74,0,0,0,5.33-1,9.44,9.44,0,0,0,5.45-5.45,16,16,0,0,0,1-5.33c.14-3,.17-3.93.17-11.6s0-8.57-.17-11.6a15.74,15.74,0,0,0-1-5.33ZM50,64.74A14.74,14.74,0,1,1,64.74,50,14.74,14.74,0,0,1,50,64.74ZM65.33,38.12a3.45,3.45,0,1,1,3.44-3.45,3.44,3.44,0,0,1-3.44,3.45Z"/><path class="cls-1" d="M50,0a50,50,0,1,0,50,50A50,50,0,0,0,50,0ZM78.54,61.84a21.12,21.12,0,0,1-1.34,7,14.69,14.69,0,0,1-8.39,8.39,21.12,21.12,0,0,1-7,1.34c-3.06.14-4,.17-11.84.17s-8.77,0-11.84-.17a21.12,21.12,0,0,1-7-1.34,14.69,14.69,0,0,1-8.39-8.39,21.12,21.12,0,0,1-1.34-7c-.14-3.06-.17-4-.17-11.84s0-8.78.17-11.84a21.12,21.12,0,0,1,1.34-7,14.69,14.69,0,0,1,8.39-8.39,21.12,21.12,0,0,1,7-1.34c3.06-.14,4-.17,11.84-.17s8.78,0,11.84.17a21.12,21.12,0,0,1,7,1.34,14.69,14.69,0,0,1,8.39,8.39,21.12,21.12,0,0,1,1.34,7c.14,3.06.17,4,.17,11.84s0,8.78-.17,11.84Z"/></g></g></svg>