<svg xmlns="http://www.w3.org/2000/svg" viewBox="0 0 100 100"><defs><style>.cls-1{fill:#fff;fill-rule:evenodd;}</style></defs><title>Recurso 3Sidekick</title><g id="Capa_2" data-name="Capa 2"><g id="Capa_1-2" data-name="Capa 1"><path class="cls-1" d="M50,0A50,50,0,1,1,0,50,50,50,0,0,1,50,0ZM77.38,38.81s-.54-3.87-2.22-5.55a8,8,0,0,0-5.6-2.37C61.73,30.32,50,30.32,50,30.32h0s-11.76,0-19.56.57a8,8,0,0,0-5.6,2.37c-1.68,1.68-2.22,5.55-2.22,5.55A83.17,83.17,0,0,0,22,47.87V52.1a83.17,83.17,0,0,0,.57,9.06s.54,3.87,2.22,5.55c2.12,2.22,4.91,2.16,6.17,2.4,4.47.42,19,.57,19,.57s11.76,0,19.59-.57a8,8,0,0,0,5.6-2.37c1.68-1.68,2.22-5.55,2.22-5.55A83.17,83.17,0,0,0,78,52.13V47.9a83.17,83.17,0,0,0-.57-9.06ZM44.18,57.26V41.54L59.3,49.43Z"/></g></g></svg>