<svg xmlns="http://www.w3.org/2000/svg" xmlns:xlink="http://www.w3.org/1999/xlink" viewBox="0 0 100 100"><defs><style>.cls-1,.cls-2{fill-rule:evenodd;}.cls-1{fill:url(#Degradado_sin_nombre_2);}.cls-2{fill:#fff;}</style><linearGradient id="Degradado_sin_nombre_2" x1="50" y1="-1414.17" x2="50" y2="-1316.71" gradientTransform="matrix(1, 0, 0, -1, 0, -1314.56)" gradientUnits="userSpaceOnUse"><stop offset="0" stop-color="#fa233b"/><stop offset="1" stop-color="#fb5c74"/></linearGradient></defs><title>Recurso 19Logo</title><g id="Capa_2" data-name="Capa 2"><g id="Capa_1-2" data-name="Capa 1"><path class="cls-1" d="M100,31.28c0-1.19,0-2.39,0-3.58,0-1,0-2,0-3a43.94,43.94,0,0,0-.58-6.57,21.9,21.9,0,0,0-2.06-6.24,20.92,20.92,0,0,0-9.18-9.18A22.22,22.22,0,0,0,81.89.63,43.94,43.94,0,0,0,75.32.05c-1,0-2,0-3,0H27.7c-1,0-2,0-3,0a43.94,43.94,0,0,0-6.57.58,22.22,22.22,0,0,0-6.24,2.06,20.92,20.92,0,0,0-9.18,9.18A22,22,0,0,0,.63,18.12a43.69,43.69,0,0,0-.58,6.56c0,1,0,2,0,3,0,1.19,0,2.39,0,3.58V68.72c0,1.19,0,2.39,0,3.58,0,1,0,2,0,3a43.69,43.69,0,0,0,.58,6.56,22,22,0,0,0,2.06,6.25,20.92,20.92,0,0,0,9.18,9.18,22.22,22.22,0,0,0,6.24,2.06,43.94,43.94,0,0,0,6.57.58c1,0,2,0,3,0H72.3c1,0,2,0,3,0a43.94,43.94,0,0,0,6.57-.58,22.22,22.22,0,0,0,6.24-2.06,20.92,20.92,0,0,0,9.18-9.18,22.28,22.28,0,0,0,2.06-6.25,43.69,43.69,0,0,0,.58-6.56c0-1,0-2,0-3,0-1.19,0-2.39,0-3.58V31.28Z"/><g id="Glyph"><path class="cls-2" d="M70.69,15.28c-.24,0-2.38.4-2.64.45l-29.72,6h0a4.17,4.17,0,0,0-1.85.84,3,3,0,0,0-1,1.93,7.19,7.19,0,0,0-.07,1V62.7a3.61,3.61,0,0,1-.65,2.44,3.36,3.36,0,0,1-2.17,1.1l-1.94.4A33.26,33.26,0,0,0,25.13,68a8.64,8.64,0,0,0-3.25,2.08,7.82,7.82,0,0,0-2.07,6.22,7.73,7.73,0,0,0,2.47,5,7.48,7.48,0,0,0,3.6,1.85,13.2,13.2,0,0,0,5.37-.27,11.08,11.08,0,0,0,3.47-1.28,8.83,8.83,0,0,0,2.74-2.53,9.38,9.38,0,0,0,1.45-3.43,17.06,17.06,0,0,0,.33-3.69V39.67c0-1.73.49-2.18,1.89-2.52,0,0,24.7-5,25.85-5.21,1.61-.31,2.37.15,2.37,1.83v22a3.68,3.68,0,0,1-.6,2.48,3.42,3.42,0,0,1-2.17,1.11l-1.94.39a33.26,33.26,0,0,0-5.5,1.39,8.66,8.66,0,0,0-3.25,2.09,7.76,7.76,0,0,0,.4,11.16,7.51,7.51,0,0,0,3.6,1.84A13.4,13.4,0,0,0,65.26,76a10.57,10.57,0,0,0,3.47-1.26,8.83,8.83,0,0,0,2.74-2.53,9.38,9.38,0,0,0,1.45-3.43,17,17,0,0,0,.28-3.68V17.91C73.21,16.19,72.3,15.14,70.69,15.28Z"/></g></g></g></svg>