<svg xmlns="http://www.w3.org/2000/svg" xmlns:xlink="http://www.w3.org/1999/xlink" viewBox="0 0 551.97 459.71"><defs><style>.cls-1{fill:url(#Degradado_sin_nombre_3);}</style><linearGradient id="Degradado_sin_nombre_3" y1="229.86" x2="551.97" y2="229.86" gradientUnits="userSpaceOnUse"><stop offset="0" stop-color="#15a1ff"/><stop offset="1" stop-color="#003dd4"/></linearGradient></defs><title>Recurso 5Logo</title><g id="Capa_2" data-name="Capa 2"><g id="Capa_1-2" data-name="Capa 1"><path class="cls-1" d="M472.22,342.07l74.86-112.75V179.67H476.45V142h68.14V90.14H476.45V55h70.62V4.28l-125,1.18V79A102.93,102.93,0,0,0,406.4,46.44C377.07,4.28,331.85,4.28,306.48,4.28L231.62,5.46V231.57l10.41-.15a113.33,113.33,0,0,0-25.55,12.34V5.46H158.74v145c-4.35-18.6-18.05-33.87-51.18-48.75C66.92,83.37,60.81,79.44,60.81,66c0-10.68,9.78-17.71,19.86-17.71,17.72,0,19.56,14.36,20.78,22h57.14c-.61-12.82-1.53-28.1-15-44.61C128.94,8.25,104.81,0,82.5,0,44.61,0,3.36,24.13,3.36,66.6S42.78,125,58.67,131.39C93.5,146.06,103,149.73,103,164.69a21.82,21.82,0,0,1-22,21.7c-7.32,0-23.52-4.58-23.52-30.86H0v7.34c0,22.8,10,54.08,46,66.45H0V455.43H57.75V357.66h.61l61.72,97.77h96.4v-15c18.38,12.05,40.8,19.25,66.11,19.25,31.63,0,60.5-11.85,81.77-32.19v27.91h57.75V357.66h.61l61.72,97.77H552Zm-414.47-11v-98.6a121.5,121.5,0,0,0,23.83,2.2c49.93,0,71.39-24.44,77.16-51.7v46.35H122.22L58.36,331.07Zm50.11,11,50.88-76.63v149ZM289.36,56.18,314.43,55c25.66,0,37.27,10.7,44,20.77,8.26,12.84,11,30.22,11,43,0,32.1-12.23,60.86-55.31,60.86l-24.76,1.18Zm47,314.61C332.69,378.74,318,409,282,409c-37.58,0-60.81-33-60.81-67.23,0-32.08,21.7-66,60.5-66,31.17,0,48.28,22.62,54.69,39.42h28v55.61Zm28-141.47v28.13a114.16,114.16,0,0,0-46.21-27.19c61.38-2.18,92.65-31.72,104-72.31v71.37Zm57.75,101.75V230.5l64.11-.6-63.5,101.17Z"/></g></g></svg>