<svg xmlns="http://www.w3.org/2000/svg" viewBox="0 0 100 100"><defs><style>.cls-1{fill:#49ba60;}.cls-2{fill:#fff;}</style></defs><title>Recurso 22Logo</title><g id="Capa_2" data-name="Capa 2"><g id="Capa_1-2" data-name="Capa 1"><circle class="cls-1" cx="50" cy="50" r="50"/><path class="cls-2" d="M70.07,73.79a3.37,3.37,0,0,1-1.69-.47c-19.69-11.85-43-5-43.26-4.93a3.28,3.28,0,0,1-1.91-6.28c1.06-.33,26.31-7.81,48.56,5.58a3.29,3.29,0,0,1-1.7,6.1Z"/><path class="cls-2" d="M75.73,60.3a3.89,3.89,0,0,1-1.93-.52c-24.73-14.22-49.65-5.94-49.9-5.85a3.89,3.89,0,0,1-2.52-7.35c1.15-.39,28.53-9.49,56.29,6.47a3.88,3.88,0,0,1-1.94,7.25Z"/><path class="cls-2" d="M81.88,45a4.8,4.8,0,0,1-2.22-.55c-28.51-15-57.8-6-58.09-5.92a4.78,4.78,0,0,1-2.88-9.11C20,29,52.1,19.19,84.1,36a4.78,4.78,0,0,1-2.22,9Z"/></g></g></svg>